<svg xmlns="http://www.w3.org/2000/svg" width="1100" height="500" viewBox="0 0 1100 500">
<style>text{font-family:Inter,Arial,sans-serif;fill:#111827}.title{font-size:26px;font-weight:700}.sub{font-size:15px;fill:#4b5563}.lab{font-size:14px}.grid{stroke:#e5e7eb}.a{fill:#64748b}.b{fill:#2563eb}</style>
<rect width="100%" height="100%" fill="white"/><text x="30" y="38" class="title">64 vs 96 GiB UMA — throughput controls</text><text x="30" y="65" class="sub">Small and mid-size models remain essentially unchanged</text>
<line x1="180" y1="425.0" x2="1030" y2="425.0" class="grid"/><text x="168" y="430.0" text-anchor="end" class="sub">0</text>
<line x1="180" y1="360.0" x2="1030" y2="360.0" class="grid"/><text x="168" y="365.0" text-anchor="end" class="sub">19</text>
<line x1="180" y1="295.0" x2="1030" y2="295.0" class="grid"/><text x="168" y="300.0" text-anchor="end" class="sub">38</text>
<line x1="180" y1="230.0" x2="1030" y2="230.0" class="grid"/><text x="168" y="235.0" text-anchor="end" class="sub">57</text>
<line x1="180" y1="165.0" x2="1030" y2="165.0" class="grid"/><text x="168" y="170.0" text-anchor="end" class="sub">77</text>
<line x1="180" y1="100.0" x2="1030" y2="100.0" class="grid"/><text x="168" y="105.0" text-anchor="end" class="sub">96</text>
<rect x="232.2" y="286.0" width="51.0" height="139.0" class="a"/><rect x="289.2" y="284.7" width="51.0" height="140.3" class="b"/><text x="286.2" y="458" text-anchor="middle" class="lab">Qwen3 8B</text>
<rect x="444.8" y="134.9" width="51.0" height="290.1" class="a"/><rect x="501.8" y="134.8" width="51.0" height="290.2" class="b"/><text x="498.8" y="458" text-anchor="middle" class="lab">Qwen3 30B-A3B</text>
<rect x="657.2" y="230.2" width="51.0" height="194.8" class="a"/><rect x="714.2" y="229.8" width="51.0" height="195.2" class="b"/><text x="711.2" y="458" text-anchor="middle" class="lab">Coder-Next</text>
<rect x="869.8" y="364.6" width="51.0" height="60.4" class="a"/><rect x="926.8" y="363.7" width="51.0" height="61.3" class="b"/><text x="923.8" y="458" text-anchor="middle" class="lab">235B IQ3_XS</text>
<rect x="835" y="25" width="14" height="14" class="a"/><text x="855" y="37" class="sub">64 GiB UMA</text><rect x="955" y="25" width="14" height="14" class="b"/><text x="975" y="37" class="sub">96 GiB UMA</text></svg>